<svg width="56" height="48" viewBox="0 0 56 48" fill="none" xmlns="http://www.w3.org/2000/svg">
<g filter="url(#filter0_d_480_4586)">
<rect x="4" y="40" width="40" height="48" rx="8" transform="rotate(-90 4 40)" fill="#FEFEFE"/>
<path d="M17.4503 20.905L31.3828 34.18C31.6152 34.4016 31.9241 34.5253 32.2453 34.5253C32.5664 34.5253 32.8753 34.4016 33.1077 34.18L33.1228 34.165C33.2358 34.0576 33.3259 33.9283 33.3874 33.7849C33.449 33.6416 33.4807 33.4873 33.4807 33.3313C33.4807 33.1753 33.449 33.0209 33.3874 32.8776C33.3259 32.7343 33.2358 32.605 33.1228 32.4975L20.0028 19.9975L33.1228 7.50253C33.2358 7.3951 33.3259 7.26578 33.3874 7.12245C33.449 6.97911 33.4807 6.82476 33.4807 6.66878C33.4807 6.5128 33.449 6.35845 33.3874 6.21511C33.3259 6.07178 33.2358 5.94246 33.1228 5.83503L33.1078 5.82003C32.8753 5.59842 32.5664 5.47479 32.2453 5.47479C31.9241 5.47479 31.6152 5.59842 31.3828 5.82003L17.4503 19.095C17.3277 19.2118 17.2302 19.3522 17.1635 19.5077C17.0969 19.6633 17.0625 19.8308 17.0625 20C17.0625 20.1693 17.0969 20.3368 17.1635 20.4923C17.2302 20.6479 17.3277 20.7883 17.4503 20.905Z" fill="#2C2C2C"/>
</g>
<defs>
<filter id="filter0_d_480_4586" x="0" y="0" width="56" height="48" filterUnits="userSpaceOnUse" color-interpolation-filters="sRGB">
<feFlood flood-opacity="0" result="BackgroundImageFix"/>
<feColorMatrix in="SourceAlpha" type="matrix" values="0 0 0 0 0 0 0 0 0 0 0 0 0 0 0 0 0 0 127 0" result="hardAlpha"/>
<feOffset dy="4"/>
<feGaussianBlur stdDeviation="2"/>
<feComposite in2="hardAlpha" operator="out"/>
<feColorMatrix type="matrix" values="0 0 0 0 0 0 0 0 0 0 0 0 0 0 0 0 0 0 0.06 0"/>
<feBlend mode="normal" in2="BackgroundImageFix" result="effect1_dropShadow_480_4586"/>
<feBlend mode="normal" in="SourceGraphic" in2="effect1_dropShadow_480_4586" result="shape"/>
</filter>
</defs>
</svg>
