<svg width="69" height="51" viewBox="0 0 69 51" fill="none" xmlns="http://www.w3.org/2000/svg">
<path d="M23.4796 13.4651C25.7847 8.97422 32.2128 8.97421 34.5179 13.4651C35.4178 15.2183 37.1116 16.4405 39.0581 16.7483C44.0283 17.5343 46.0411 23.6372 42.4751 27.1873C41.0761 28.58 40.431 30.5611 40.7403 32.5108C41.5282 37.4778 36.3018 41.2247 31.8141 38.9548C30.0532 38.0641 27.9443 38.0641 26.1833 38.9548C21.6956 41.2247 16.4692 37.4778 17.2572 32.5108C17.5665 30.5611 16.9213 28.58 15.5224 27.1873C11.9563 23.6372 13.9692 17.5343 18.9394 16.7483C20.8859 16.4405 22.5797 15.2183 23.4796 13.4651Z" fill="#FFE550"/>
<path d="M4.31797 32.9132L4.28397 32.9212C4.2881 33.0391 4.28195 33.516 4.26552 34.352C4.26043 35.1854 4.25902 35.7326 4.26131 35.9936C4.26091 36.2433 4.25546 36.4467 4.24497 36.6037C4.2458 36.758 4.24633 36.9362 4.24655 37.1383C4.24409 37.329 4.23359 37.486 4.21505 37.6093C4.20517 37.7186 4.19529 37.8279 4.18541 37.9372C4.16296 38.1446 4.11774 38.2563 4.04975 38.2723C3.90242 38.3069 3.67226 38.1946 3.35925 37.9353C3.04356 37.6648 2.86161 37.4282 2.81338 37.2256C2.76515 37.0229 2.7532 35.5397 2.77753 32.776C2.8132 30.0097 2.7392 28.1904 2.55556 27.3182C2.51536 27.1494 2.52288 27.0049 2.57809 26.885C2.63515 26.6219 2.92927 26.3745 3.46045 26.1426C4.00296 25.908 4.81251 25.6642 5.8891 25.4111C6.97703 25.1553 7.84036 25.0118 8.47912 24.9805C9.1292 24.9465 9.47836 25.0309 9.52659 25.2335C9.55874 25.3686 9.48519 25.487 9.30593 25.5885C9.12667 25.6901 8.9674 25.7751 8.82812 25.8435C8.68615 25.9007 8.5002 25.9741 8.27025 26.0638C8.03763 26.1423 7.822 26.2168 7.62338 26.2873C7.42207 26.3465 7.16112 26.4316 6.84051 26.5426C6.53124 26.651 6.24463 26.7541 5.98069 26.8518C5.71406 26.9382 5.35513 27.0642 4.9039 27.2298C4.45266 27.3953 4.16038 27.4997 4.02707 27.5429C4.04644 27.574 4.06417 27.6233 4.08024 27.6909C4.20618 28.22 4.27457 29.4878 4.28542 31.4943C4.99607 31.3629 5.74567 31.1688 6.5342 30.9121C7.33407 30.6527 7.82466 30.5017 8.00598 30.4591C8.43662 30.3578 8.67337 30.3973 8.71625 30.5774C8.79931 30.9264 8.37601 31.335 7.44634 31.8032C6.52801 32.2688 5.48522 32.6387 4.31797 32.9132Z" fill="#2C2C2C"/>
<path d="M15.4151 29.8049C15.324 29.4221 15.1759 29.0765 14.9709 28.7681C14.7632 28.4484 14.5216 28.2378 14.2461 28.1361C13.515 28.5338 12.9841 29.2947 12.6532 30.4186C12.3311 31.5286 12.2731 32.517 12.4794 33.3838C12.6857 34.2507 13.0297 34.7404 13.5112 34.8531C14.2897 34.5037 14.8496 33.7895 15.1912 32.7106C15.5414 31.6178 15.616 30.6493 15.4151 29.8049ZM10.9806 31.008C11.1682 30.0366 11.5124 29.1949 12.013 28.4828C12.5223 27.7568 13.1113 27.3152 13.7799 27.158C14.4599 26.9981 15.0948 27.152 15.6848 27.6195C16.272 28.0759 16.6635 28.7149 16.8591 29.5368C17.052 30.3473 17.0519 31.227 16.8589 32.1759C16.6633 33.1135 16.2811 33.9463 15.7124 34.6744C15.1524 35.3886 14.4815 35.8375 13.6995 36.0214C13.1216 36.1573 12.577 36.0059 12.0657 35.5674C11.5545 35.1289 11.2024 34.5043 11.0095 33.6938C10.8139 32.8719 10.8043 31.9767 10.9806 31.008Z" fill="#2C2C2C"/>
<path d="M23.1177 27.994C23.0266 27.6112 22.8785 27.2656 22.6735 26.9572C22.4657 26.6375 22.2241 26.4269 21.9486 26.3252C21.2176 26.7229 20.6867 27.4838 20.3558 28.6077C20.0336 29.7177 19.9757 30.7061 20.182 31.5729C20.3883 32.4398 20.7323 32.9295 21.2138 33.0422C21.9922 32.6928 22.5522 31.9786 22.8938 30.8997C23.244 29.8069 23.3186 28.8383 23.1177 27.994ZM18.6832 29.1971C18.8708 28.2257 19.215 27.384 19.7156 26.6719C20.2249 25.9459 20.8139 25.5042 21.4825 25.3471C22.1624 25.1872 22.7974 25.3411 23.3873 25.8086C23.9746 26.265 24.3661 26.904 24.5617 27.7259C24.7546 28.5364 24.7545 29.4161 24.5615 30.365C24.3658 31.3026 23.9837 32.1354 23.415 32.8635C22.855 33.5776 22.1841 34.0266 21.4021 34.2105C20.8242 34.3464 20.2796 34.195 19.7683 33.7565C19.2571 33.318 18.905 32.6934 18.7121 31.8829C18.5165 31.061 18.5068 30.1658 18.6832 29.1971Z" fill="#2C2C2C"/>
<path d="M31.1535 18.0805C31.3348 18.0379 31.596 18.1548 31.937 18.4312C32.2867 18.6938 32.4964 18.9714 32.5661 19.2641C32.6357 19.5568 32.6923 20.4232 32.7359 21.8632C32.7768 23.2921 32.7844 24.7822 32.7588 26.3336C32.7252 29.8128 32.5781 31.583 32.3175 31.6442C32.1588 31.6815 31.9604 31.6271 31.7222 31.4811C31.4926 31.321 31.3605 31.1679 31.3256 31.0215C31.2908 30.8752 31.2608 30.5731 31.2356 30.1154C30.393 31.5023 29.558 32.293 28.7307 32.4875C28.2321 32.6047 27.7252 32.4861 27.2101 32.1317C26.7062 31.7747 26.3967 31.3541 26.2815 30.87C26.1154 30.172 26.1054 29.3006 26.2517 28.2558C26.4065 27.197 26.7472 26.1897 27.2736 25.2338C27.8 24.2779 28.4655 23.7053 29.2701 23.5162C30.0747 23.327 30.7495 23.6736 31.2946 24.5559C31.3045 22.0333 31.173 20.073 30.9001 18.675C30.8197 18.3373 30.9042 18.1391 31.1535 18.0805ZM31.257 26.8115C31.1123 26.2036 30.8828 25.7167 30.5683 25.3508C30.2652 24.9822 29.9663 24.8325 29.6717 24.9018C29.1844 25.0164 28.7567 25.4319 28.3888 26.1485C28.0208 26.865 27.7763 27.6477 27.6552 28.4964C27.5427 29.3312 27.5535 30.0301 27.6875 30.593C27.7357 30.7956 27.8482 30.9415 28.025 31.0307C28.2018 31.1199 28.3922 31.1406 28.5962 31.0926C29.0382 30.9887 29.5581 30.5336 30.156 29.7273C30.7652 28.9184 31.138 28.0461 31.2744 27.1106L31.2771 26.896L31.257 26.8115Z" fill="#2C2C2C"/>
<path d="M42.1083 25.7939C42.3281 26.717 42.0936 27.5924 41.4051 28.42C40.7138 29.2363 39.8242 29.7724 38.7363 30.0282C37.6597 30.2813 36.7045 30.2146 35.8706 29.8282C35.034 29.4304 34.5567 28.9839 34.4388 28.4886C34.3585 28.1508 34.4203 27.958 34.6243 27.91C34.8056 27.8674 35.2269 28.0537 35.8881 28.4688C36.1376 28.6122 36.4525 28.7284 36.8326 28.8174C37.2241 28.9036 37.6126 28.9015 37.9979 28.8109C38.7911 28.6244 39.4455 28.2566 39.961 27.7074C40.4878 27.1556 40.695 26.6433 40.5825 26.1704C40.5101 25.8665 40.2137 25.526 39.6932 25.1491C39.1727 24.7722 38.6135 24.4341 38.0158 24.1348C37.4267 23.8215 36.8705 23.4708 36.3473 23.0827C35.8241 22.6945 35.529 22.3597 35.4621 22.0782C35.3951 21.7968 35.3807 21.4851 35.419 21.1433C35.4573 20.8014 35.5271 20.5413 35.6282 20.363C35.955 19.775 36.5348 19.1691 37.3676 18.5454C38.2117 17.9189 38.9511 17.5311 39.5857 17.3819C39.9144 17.3047 40.2175 17.3463 40.495 17.5069C40.7726 17.6676 40.9395 17.8661 40.9958 18.1025C41.0226 18.2151 40.925 18.3331 40.7031 18.4566C40.4812 18.5801 40.14 18.7554 39.6795 18.9826C39.2276 19.1958 38.8321 19.4195 38.493 19.6538C37.3076 20.4556 36.7699 21.0872 36.8798 21.5488C36.9387 21.7965 37.7664 22.333 39.363 23.1583C39.9774 23.4774 40.5583 23.8818 41.1056 24.3713C41.6616 24.8468 41.9958 25.321 42.1083 25.7939Z" fill="#2C2C2C"/>
<path d="M46.0122 26.6414C46.0631 26.8553 46.2133 26.9329 46.4626 26.8743C46.8932 26.7731 47.3864 26.5323 47.9421 26.152C48.5064 25.7578 48.8226 25.5527 48.8906 25.5367C49.0946 25.4888 49.222 25.5717 49.2729 25.7856C49.3506 26.1121 49.1004 26.5692 48.5223 27.1568C47.9555 27.7418 47.3944 28.0996 46.8391 28.2302C46.2952 28.358 45.807 28.3183 45.3747 28.1108C44.9397 27.8921 44.6847 27.6251 44.6097 27.3099C44.5347 26.9947 44.5076 26.5791 44.5283 26.063C44.5464 25.5357 44.585 24.8431 44.6441 23.9851C44.7118 23.1133 44.7564 22.3955 44.7778 21.8317C44.2746 22.0808 43.9324 22.2266 43.7511 22.2693C43.5697 22.3119 43.367 22.2645 43.1428 22.127C42.9273 21.9756 42.7994 21.8154 42.7592 21.6465C42.6949 21.3764 43.3699 20.9442 44.7842 20.3502C44.7658 19.3678 44.6708 18.5164 44.4993 17.7959C44.419 17.4582 44.4921 17.2627 44.7187 17.2094C44.9114 17.1641 45.1789 17.232 45.5211 17.413C45.8607 17.5828 46.0667 17.8197 46.139 18.1237C46.2113 18.4276 46.2423 18.985 46.2318 19.7959C46.8644 19.5877 47.3733 19.4383 47.7586 19.3478C48.4386 19.1879 48.8134 19.2543 48.8831 19.547C48.9232 19.7159 48.7698 19.9006 48.4226 20.1011C48.0867 20.2989 47.3576 20.6546 46.2353 21.1681C46.209 22.1134 46.1512 23.2029 46.0619 24.4364C45.9698 25.6587 45.9533 26.3937 46.0122 26.6414Z" fill="#2C2C2C"/>
<path d="M53.6123 17.7932C54.1222 17.6733 54.6541 17.8217 55.208 18.2383C55.7592 18.6437 56.0844 19.0546 56.1836 19.4712C56.28 19.8765 56.2375 20.3263 56.056 20.8207C56.2322 20.9576 56.335 21.088 56.3645 21.2118C56.4395 21.527 56.4945 22.0847 56.5293 22.8849C56.5755 23.6824 56.6098 24.2034 56.632 24.4478C56.6656 24.6895 56.6885 24.8862 56.7007 25.0379C56.7102 25.1783 56.714 25.3201 56.7122 25.4632C56.7338 25.7553 56.6653 25.92 56.5067 25.9573C56.3027 26.0052 56.0912 25.8707 55.8721 25.5537C55.6617 25.2227 55.4782 24.7785 55.3216 24.2209C54.6157 25.7302 53.8322 26.5861 52.9709 26.7885C52.4496 26.9111 51.8817 26.8128 51.2673 26.4936C50.6615 26.1606 50.3023 25.7576 50.1898 25.2848C50.029 24.6093 50.08 23.7176 50.3429 22.6097C50.603 21.4905 51.0373 20.4493 51.6457 19.486C52.2541 18.5227 52.9096 17.9584 53.6123 17.7932ZM55.1016 20.5815C54.8524 19.5345 54.5181 19.0603 54.0988 19.1589C53.6569 19.2628 53.2162 19.6992 52.777 20.4682C52.3351 21.2259 52.0039 22.0468 51.7835 22.9308C51.5631 23.8147 51.5078 24.4875 51.6177 24.9491C51.6632 25.1404 51.78 25.2794 51.9682 25.3659C52.1536 25.4412 52.354 25.4535 52.5693 25.4029C53.102 25.2777 53.6182 24.7819 54.118 23.9154C54.6151 23.0377 54.8721 22.056 54.8889 20.9703C54.8828 20.7934 54.955 20.6694 55.1056 20.5984L55.1016 20.5815Z" fill="#2C2C2C"/>
<path fill-rule="evenodd" clip-rule="evenodd" d="M50.2432 32.2083C49.4666 32.3993 48.8467 32.9717 48.5325 33.7072C45.3156 41.2374 37.8052 46.5343 29.0249 46.5343C23.934 46.5343 19.27 44.7536 15.6222 41.7893C15.005 41.2877 14.1948 41.0713 13.4224 41.2612C11.694 41.6862 11.0519 43.7769 12.4106 44.9268C16.8862 48.7143 22.6871 51 29.0249 51C39.8208 51 49.0587 44.3679 52.8421 34.9779C53.5058 33.3307 51.9678 31.7843 50.2432 32.2083ZM6.68325 22.239C7.57871 22.0188 8.24804 21.2864 8.47284 20.3921C10.769 11.257 19.0829 4.46567 29.0249 4.46567C35.3047 4.46567 40.9349 7.17523 44.8094 11.4735C45.423 12.1542 46.35 12.4864 47.2399 12.2676C48.8032 11.8832 49.5052 10.0648 48.4499 8.84894C43.7468 3.42995 36.7887 0 29.0249 0C16.8364 0 6.63376 8.45349 4.02427 19.7853C3.66462 21.3471 5.12692 22.6216 6.68325 22.239Z" fill="#BBF330"/>
<path d="M67.5896 8.49697C61.5285 20.0375 58.8678 12.4255 50.3357 16.8969C51.189 3.50057 60.2255 11.6517 67.5896 8.49697Z" fill="#BBF330" stroke="#BBF330" stroke-width="1.64286" stroke-linejoin="round"/>
</svg>
