<svg width="66" height="52" viewBox="0 0 66 52" fill="none" xmlns="http://www.w3.org/2000/svg">
<path d="M22.9815 10.4904C24.6237 7.26894 29.2148 7.26894 30.8571 10.4904L32.9361 14.5685C33.5792 15.8301 34.7848 16.7076 36.1804 16.9298L40.6854 17.647C44.2537 18.2151 45.6737 22.6015 43.1185 25.1628L39.9039 28.3849C38.903 29.3882 38.4414 30.8113 38.6622 32.2131L39.3721 36.7186C39.9355 40.2941 36.2199 43.0035 33.0012 41.3643L28.9219 39.2869C27.6633 38.646 26.1752 38.646 24.9167 39.2869L20.8373 41.3644C17.6187 43.0035 13.9031 40.2941 14.4664 36.7186L15.1763 32.2131C15.3972 30.8113 14.9356 29.3882 13.9346 28.3849L10.7201 25.1628C8.16486 22.6015 9.58486 18.2151 13.1532 17.647L17.6582 16.9298C19.0537 16.7076 20.2593 15.8301 20.9025 14.5685L22.9815 10.4904Z" fill="#FFE550"/>
<path d="M1.81396 33.0801L1.77952 33.0883C1.78377 33.2088 1.77779 33.6962 1.76159 34.5506C1.75686 35.4022 1.75572 35.9614 1.75817 36.2281C1.7579 36.4833 1.75249 36.6912 1.74194 36.8516C1.74286 37.0093 1.74349 37.1914 1.74382 37.3979C1.74143 37.5929 1.73088 37.7533 1.71216 37.8793C1.70221 37.991 1.69226 38.1027 1.6823 38.2144C1.65968 38.4263 1.61393 38.5404 1.54506 38.5567C1.39585 38.592 1.16265 38.4771 0.845461 38.212C0.52555 37.9354 0.341115 37.6935 0.292156 37.4864C0.243197 37.2793 0.230321 35.7635 0.253526 32.9392C0.288208 30.1121 0.21231 28.2529 0.0258302 27.3615C-0.0149688 27.1889 -0.00743603 27.0413 0.0484286 26.9187C0.106087 26.6499 0.403881 26.3971 0.941811 26.1605C1.49122 25.9211 2.31111 25.6723 3.4015 25.4142C4.50336 25.1534 5.37779 25.0071 6.02479 24.9755C6.68326 24.9411 7.03698 25.0275 7.08594 25.2346C7.11858 25.3727 7.04414 25.4936 6.86261 25.5973C6.68109 25.701 6.51981 25.7878 6.37876 25.8576C6.23499 25.916 6.04666 25.9909 5.81379 26.0825C5.5782 26.1626 5.35982 26.2386 5.15866 26.3105C4.95478 26.3709 4.6905 26.4577 4.3658 26.5711C4.05259 26.6816 3.76232 26.7868 3.49502 26.8865C3.22499 26.9748 2.86149 27.1033 2.4045 27.2723C1.94751 27.4412 1.65151 27.5477 1.5165 27.5918C1.53614 27.6236 1.55412 27.674 1.57043 27.7431C1.69827 28.2839 1.76821 29.5795 1.78025 31.6301C2.50003 31.4962 3.25922 31.2982 4.05782 31.0363C4.86789 30.7716 5.36475 30.6176 5.5484 30.5741C5.98455 30.4708 6.22439 30.5113 6.26791 30.6954C6.35222 31.0521 5.92366 31.4694 4.98222 31.9474C4.05225 32.4227 2.99616 32.8003 1.81396 33.0801Z" fill="#2C2C2C"/>
<path d="M13.053 29.9094C12.9605 29.5182 12.8103 29.1649 12.6025 28.8496C12.3919 28.5228 12.1471 28.3074 11.868 28.2033C11.1277 28.6094 10.5903 29.3867 10.2557 30.5351C9.92997 31.6693 9.8718 32.6794 10.0812 33.5654C10.2907 34.4514 10.6393 34.952 11.1271 35.0674C11.9155 34.7107 12.4823 33.9812 12.8277 32.8788C13.1819 31.7622 13.257 30.7724 13.053 29.9094ZM8.56175 31.1366C8.75131 30.144 9.09947 29.2839 9.60623 28.5565C10.1217 27.8148 10.7181 27.3638 11.3953 27.2035C12.0839 27.0405 12.7272 27.198 13.325 27.6762C13.9201 28.1428 14.317 28.7961 14.5155 29.6361C14.7113 30.4646 14.7118 31.3636 14.5168 32.3332C14.319 33.2912 13.9324 34.1422 13.3567 34.8859C12.7899 35.6155 12.1105 36.074 11.3185 36.2615C10.7331 36.4 10.1814 36.2451 9.66332 35.7967C9.14524 35.3482 8.78828 34.7098 8.59245 33.8813C8.39389 33.0414 8.38366 32.1264 8.56175 31.1366Z" fill="#2C2C2C"/>
<path d="M20.8543 28.0627C20.7618 27.6715 20.6116 27.3183 20.4038 27.0029C20.1932 26.6761 19.9484 26.4607 19.6692 26.3567C18.929 26.7628 18.3915 27.54 18.057 28.6884C17.7312 29.8226 17.6731 30.8327 17.8825 31.7187C18.0919 32.6047 18.4406 33.1054 18.9284 33.2208C19.7167 32.864 20.2836 32.1345 20.629 31.0321C20.9832 29.9155 21.0583 28.9257 20.8543 28.0627ZM16.363 29.2899C16.5526 28.2973 16.9007 27.4373 17.4075 26.7098C17.923 25.9681 18.5194 25.5171 19.1966 25.3568C19.8852 25.1938 20.5285 25.3514 21.1263 25.8295C21.7214 26.2962 22.1182 26.9495 22.3168 27.7894C22.5126 28.6179 22.513 29.5169 22.318 30.4865C22.1203 31.4446 21.7336 32.2955 21.158 33.0393C20.5911 33.7688 19.9117 34.2273 19.1198 34.4148C18.5344 34.5534 17.9827 34.3984 17.4646 33.95C16.9465 33.5016 16.5896 32.8631 16.3937 32.0347C16.1952 31.1947 16.1849 30.2798 16.363 29.2899Z" fill="#2C2C2C"/>
<path d="M28.9889 17.9357C29.1725 17.8923 29.4371 18.0119 29.7827 18.2946C30.1371 18.5631 30.3496 18.8469 30.4203 19.1461C30.491 19.4452 30.5488 20.3307 30.5937 21.8024C30.6359 23.2626 30.6444 24.7854 30.6192 26.3709C30.587 29.9264 30.439 31.7354 30.175 31.7979C30.0143 31.8359 29.8133 31.7802 29.5719 31.6308C29.3393 31.4672 29.2053 31.3105 29.17 31.161C29.1346 31.0114 29.104 30.7027 29.0783 30.2349C28.2255 31.6518 27.3801 32.4594 26.5423 32.6578C26.0372 32.7773 25.5237 32.6559 25.0017 32.2934C24.4912 31.9283 24.1775 31.4983 24.0605 31.0035C23.8919 30.2901 23.8814 29.3996 24.0289 28.3319C24.1853 27.2499 24.5298 26.2207 25.0625 25.2441C25.5952 24.2674 26.269 23.6827 27.0839 23.4898C27.8988 23.2969 28.5826 23.6514 29.1351 24.5534C29.1439 21.9755 29.0097 19.9721 28.7325 18.5432C28.6509 18.198 28.7364 17.9955 28.9889 17.9357ZM29.0983 26.8585C28.9514 26.2372 28.7186 25.7394 28.3999 25.3653C28.0927 24.9885 27.7898 24.8354 27.4914 24.906C26.9979 25.0229 26.5649 25.4473 26.1926 26.1794C25.8202 26.9115 25.573 27.7112 25.4507 28.5785C25.3373 29.4316 25.3485 30.1458 25.4845 30.7211C25.5335 30.9282 25.6475 31.0774 25.8267 31.1687C26.0058 31.2599 26.1987 31.2811 26.4053 31.2322C26.8529 31.1262 27.3793 30.6614 27.9845 29.8377C28.6012 29.0113 28.9784 28.1201 29.116 27.1641L29.1187 26.9448L29.0983 26.8585Z" fill="#2C2C2C"/>
<path d="M40.0894 25.8241C40.3124 26.7677 40.0754 27.6621 39.3784 28.5076C38.6787 29.3415 37.7778 29.8888 36.676 30.1496C35.5856 30.4078 34.618 30.3391 33.7731 29.9438C32.9254 29.5369 32.4418 29.0803 32.3221 28.574C32.2405 28.2288 32.303 28.0318 32.5096 27.9829C32.6933 27.9394 33.1201 28.13 33.7901 28.5546C34.0429 28.7013 34.3619 28.8202 34.7471 28.9113C35.1437 28.9997 35.5371 28.9977 35.9273 28.9053C36.7308 28.7151 37.3934 28.3395 37.9153 27.7786C38.4487 27.2149 38.6582 26.6915 38.544 26.2082C38.4706 25.8975 38.1701 25.5495 37.6427 25.164C37.1152 24.7785 36.5487 24.4327 35.943 24.1265C35.3461 23.8061 34.7826 23.4474 34.2525 23.0504C33.7223 22.6535 33.4232 22.3112 33.3552 22.0235C33.2872 21.7358 33.2725 21.4173 33.3112 21.068C33.3498 20.7186 33.4203 20.4529 33.5226 20.2707C33.8533 19.6699 34.4403 19.0511 35.2835 18.4141C36.1383 17.7743 36.887 17.3784 37.5298 17.2262C37.8626 17.1474 38.1697 17.1902 38.4509 17.3545C38.7321 17.5187 38.9013 17.7217 38.9584 17.9633C38.9856 18.0784 38.8869 18.199 38.6622 18.3251C38.4375 18.4512 38.0919 18.6302 37.6256 18.8621C37.168 19.0797 36.7675 19.3082 36.4241 19.5474C35.2238 20.3662 34.6795 21.0114 34.791 21.4832C34.8508 21.7363 35.6895 22.285 37.3071 23.1293C37.9297 23.4558 38.5183 23.8693 39.073 24.3698C39.6364 24.8561 39.9752 25.3409 40.0894 25.8241Z" fill="#2C2C2C"/>
<path d="M44.0443 26.6923C44.0959 26.9109 44.248 26.9903 44.5005 26.9306C44.9367 26.8273 45.4361 26.5815 45.9988 26.1932C46.5702 25.7906 46.8904 25.5812 46.9592 25.5649C47.1658 25.516 47.295 25.6008 47.3466 25.8194C47.4255 26.1531 47.1723 26.6201 46.587 27.2204C46.0132 27.8179 45.4451 28.1832 44.8827 28.3164C44.3317 28.4468 43.8373 28.4059 43.3992 28.1937C42.9585 27.9699 42.7001 27.697 42.6239 27.3748C42.5478 27.0526 42.5201 26.6278 42.5408 26.1005C42.5589 25.5616 42.5976 24.8538 42.657 23.977C42.7252 23.0861 42.7699 22.3525 42.7913 21.7764C42.2818 22.0307 41.9352 22.1796 41.7515 22.223C41.5679 22.2665 41.3625 22.2179 41.1353 22.0773C40.9169 21.9224 40.7873 21.7587 40.7465 21.5861C40.6812 21.31 41.3647 20.8687 42.797 20.2624C42.7779 19.2584 42.6812 18.3883 42.5072 17.6518C42.4256 17.3067 42.4995 17.1069 42.7291 17.0526C42.9242 17.0064 43.1952 17.0759 43.542 17.2611C43.886 17.4348 44.0948 17.677 44.1682 17.9877C44.2416 18.2983 44.2733 18.868 44.2631 19.6966C44.9037 19.4842 45.4192 19.3318 45.8094 19.2395C46.4981 19.0764 46.8778 19.1445 46.9485 19.4437C46.9893 19.6163 46.8339 19.8049 46.4823 20.0097C46.1423 20.2117 45.4039 20.5748 44.2674 21.099C44.2412 22.065 44.1832 23.1784 44.0933 24.439C44.0008 25.688 43.9844 26.4392 44.0443 26.6923Z" fill="#2C2C2C"/>
<path d="M51.7379 17.6538C52.2544 17.5316 52.7933 17.6835 53.3546 18.1095C53.9131 18.5241 54.2427 18.9442 54.3434 19.37C54.4413 19.7842 54.3985 20.2439 54.2149 20.7491C54.3934 20.889 54.4976 21.0223 54.5275 21.1489C54.6037 21.4711 54.6597 22.041 54.6954 22.8588C54.7426 23.6738 54.7776 24.2063 54.8003 24.456C54.8344 24.7031 54.8577 24.9041 54.8701 25.0592C54.8798 25.2027 54.8838 25.3475 54.882 25.4938C54.904 25.7923 54.8347 25.9606 54.6741 25.9986C54.4675 26.0475 54.2531 25.9099 54.0311 25.5858C53.8178 25.2475 53.6317 24.7934 53.4727 24.2235C52.7585 25.7656 51.9653 26.6398 51.093 26.8463C50.565 26.9713 49.9897 26.8705 49.3672 26.544C48.7534 26.2033 48.3893 25.7913 48.2751 25.3081C48.1119 24.6177 48.1631 23.7064 48.4288 22.5743C48.6917 21.4307 49.1311 20.3668 49.7469 19.3827C50.3626 18.3986 51.0263 17.8223 51.7379 17.6538ZM53.248 20.5041C52.995 19.434 52.6562 18.9492 52.2315 19.0497C51.7839 19.1557 51.3378 19.6015 50.8933 20.3871C50.446 21.1613 50.111 21.9999 49.8882 22.9032C49.6654 23.8065 49.6098 24.494 49.7213 24.9657C49.7675 25.1613 49.8859 25.3034 50.0766 25.3919C50.2644 25.469 50.4674 25.4817 50.6855 25.4301C51.225 25.3024 51.7476 24.7959 52.2534 23.9107C52.7565 23.014 53.0163 22.0109 53.0328 20.9013C53.0264 20.7205 53.0995 20.5939 53.252 20.5213L53.248 20.5041Z" fill="#2C2C2C"/>
<path d="M49.9832 32.4563C49.4911 32.5781 49.1031 32.9532 48.9407 33.4346C45.8438 42.6152 37.1693 49.2285 26.9468 49.2285C20.7477 49.2285 15.1179 46.7965 10.9559 42.8348C10.5892 42.4857 10.0732 42.3359 9.58237 42.4574C8.5443 42.7144 8.15162 43.9757 8.92196 44.7193C13.5927 49.2274 19.9463 52 26.9468 52C38.448 52 48.2032 44.5163 51.6182 34.1479C51.9532 33.1307 51.0203 32.1996 49.9832 32.4563Z" fill="#BBF330"/>
<path d="M3.03325 22.994C3.59425 22.8552 4.01047 22.3866 4.11406 21.8166C6.08212 10.9874 15.5529 2.77153 26.9468 2.77153C34.355 2.77153 40.9502 6.24472 45.1988 11.6512C45.5553 12.1049 46.1394 12.3232 46.6986 12.1848C47.647 11.95 48.0755 10.8447 47.4759 10.0715C42.7246 3.94356 35.2957 0 26.9468 0C14.1394 0 3.49707 9.2802 1.36395 21.4898C1.19577 22.4525 2.08698 23.2283 3.03325 22.994Z" fill="#BBF330"/>
<path d="M66 8.66363C59.8621 20.4304 57.1676 12.6692 48.5274 17.2283C49.3915 3.56927 58.5425 11.8802 66 8.66363Z" fill="#BBF330"/>
</svg>
