<!-- Generated by IcoMoon.io -->
<svg version="1.1" xmlns="http://www.w3.org/2000/svg" width="32" height="32" viewBox="0 0 32 32">
<title>rocket</title>
<path fill="#7eb101" d="M7.233 13.633l3.533 1.5c0.4-0.8 0.828-1.589 1.283-2.367s0.939-1.522 1.45-2.233l-2.633-0.533-3.633 3.633zM12.367 16.333l4.433 4.433c1.267-0.578 2.456-1.233 3.567-1.967s2.011-1.444 2.7-2.133c1.8-1.8 3.122-3.644 3.967-5.533s1.3-4.022 1.367-6.4c-2.378 0.067-4.511 0.522-6.4 1.367s-3.733 2.167-5.533 3.967c-0.689 0.689-1.4 1.589-2.133 2.7s-1.389 2.3-1.967 3.567zM20 13.133c-0.444-0.444-0.667-0.995-0.667-1.65s0.222-1.206 0.667-1.65 0.994-0.667 1.65-0.667c0.656 0 1.206 0.222 1.65 0.667s0.667 0.994 0.667 1.65c0 0.655-0.222 1.206-0.667 1.65s-0.994 0.667-1.65 0.667-1.206-0.222-1.65-0.667zM19.5 25.9l3.633-3.633-0.533-2.633c-0.711 0.511-1.456 0.994-2.233 1.45s-1.567 0.883-2.367 1.283l1.5 3.533zM30.367 2.767c0.2 3.022-0.178 5.778-1.133 8.267s-2.533 4.833-4.733 7.033l-0.133 0.133 0.733 3.667c0.067 0.333 0.050 0.656-0.050 0.967s-0.272 0.589-0.517 0.833l-5.7 5.733-2.833-6.6-5.667-5.667-6.6-2.833 5.733-5.7c0.244-0.244 0.522-0.417 0.833-0.517s0.633-0.117 0.967-0.050l3.667 0.733c0.022-0.022 0.044-0.039 0.067-0.050s0.044-0.028 0.067-0.050c2.2-2.2 4.544-3.783 7.033-4.75s5.244-1.35 8.267-1.15v0zM5.967 21.167c0.778-0.778 1.728-1.172 2.85-1.183s2.072 0.372 2.85 1.15c0.778 0.778 1.161 1.728 1.15 2.85s-0.406 2.072-1.183 2.85c-0.578 0.578-1.472 1.055-2.683 1.433s-3.028 0.733-5.45 1.067c0.333-2.422 0.683-4.244 1.050-5.467s0.839-2.122 1.417-2.7v0zM7.367 22.6c-0.311 0.333-0.589 0.856-0.833 1.567s-0.456 1.622-0.633 2.733c1.111-0.178 2.022-0.389 2.733-0.633s1.233-0.522 1.567-0.833c0.422-0.378 0.639-0.85 0.65-1.417s-0.183-1.061-0.583-1.483c-0.422-0.4-0.917-0.595-1.483-0.583s-1.039 0.228-1.417 0.65z"></path>
</svg>
