<!-- Generated by IcoMoon.io -->
<svg version="1.1" xmlns="http://www.w3.org/2000/svg" width="32" height="32" viewBox="0 0 32 32">
<title>touch_app</title>
<path fill="#7eb101" d="M15.5 1.333c2.022 0 3.75 0.706 5.183 2.117s2.15 3.128 2.15 5.15c0 1.156-0.25 2.244-0.75 3.267s-1.206 1.889-2.117 2.6h-1.133v-1.667c0.645-0.511 1.139-1.133 1.483-1.867s0.517-1.511 0.517-2.333c0-1.467-0.522-2.711-1.567-3.733s-2.3-1.533-3.767-1.533-2.722 0.511-3.767 1.533c-1.044 1.022-1.567 2.267-1.567 3.733 0 0.822 0.172 1.6 0.517 2.333s0.839 1.356 1.483 1.867v2.4c-1.245-0.645-2.222-1.556-2.933-2.733s-1.067-2.467-1.067-3.867c0-2.022 0.717-3.739 2.15-5.15s3.161-2.117 5.183-2.117zM14.233 29.333c-0.378 0-0.733-0.072-1.067-0.217s-0.622-0.339-0.867-0.583l-6.867-6.867 1.867-1.933c0.311-0.311 0.661-0.55 1.050-0.717s0.794-0.194 1.217-0.083l2.6 0.6v-10.867c0-0.933 0.322-1.722 0.967-2.367s1.433-0.967 2.367-0.967 1.722 0.322 2.367 0.967c0.644 0.644 0.967 1.433 0.967 2.367v5.733h0.867c0.111 0 0.211 0.022 0.3 0.067s0.189 0.089 0.3 0.133l4.933 2.4c0.533 0.244 0.928 0.639 1.183 1.183s0.328 1.106 0.217 1.683l-1.2 7.267c-0.111 0.645-0.422 1.172-0.933 1.583s-1.089 0.617-1.733 0.617h-8.533zM13.967 27.333h9.367l1.433-8.3-6.1-3.033h-1.833v-7.333c0-0.4-0.122-0.722-0.367-0.967s-0.567-0.367-0.967-0.367-0.722 0.122-0.967 0.367c-0.244 0.244-0.367 0.567-0.367 0.967v13.3l-5.133-1.1-0.767 0.767 5.7 5.7zM23.333 27.333v0z"></path>
</svg>
